<?xml version="1.0" encoding="UTF-8"?>
<svg width="81px" height="78px" viewBox="0 0 81 78" version="1.1" xmlns="http://www.w3.org/2000/svg" xmlns:xlink="http://www.w3.org/1999/xlink">
    <title>917A7A82-9A98-4B37-A5E7-D3E4AC975A7C</title>
    <g id="Page-1" stroke="none" stroke-width="1" fill="none" fill-rule="evenodd">
        <g id="2.Landing-Screen---Buyer-" transform="translate(-1304.000000, -160.000000)">
            <g id="Group-21" transform="translate(1304.000000, 160.000000)">
                <g id="Group-14" fill="#D9FFD9" stroke="#CEFFD4" stroke-width="0.4">
                    <rect id="Rectangle" x="0.2" y="0.2" width="80.6" height="77.6" rx="8"></rect>
                </g>
                <g id="noun_Money_3493281" transform="translate(24.000000, 20.000000)" fill="#34C768" fill-rule="nonzero" stroke="#00C100" stroke-width="0.2">
                    <path d="M10.7179487,12.6666667 C5.52169231,12.6666667 0,14.3737436 0,17.5384615 L0,33.1282051 C0,36.2929231 5.52169231,38 10.7179487,38 C15.9142051,38 21.4358974,36.2929231 21.4358974,33.1282051 L21.4358974,17.5384615 C21.4358974,14.3737436 15.9142051,12.6666667 10.7179487,12.6666667 Z M10.7179487,36.0512821 C5.36482051,36.0512821 1.94871795,34.3208205 1.94871795,33.1282051 L1.94871795,32.1129231 C4.01630769,33.4205128 7.42948718,34.1025641 10.7179487,34.1025641 C14.0064103,34.1025641 17.4195897,33.4205128 19.4871795,32.1129231 L19.4871795,33.1282051 C19.4871795,34.3208205 16.0710769,36.0512821 10.7179487,36.0512821 Z M10.7179487,32.1538462 C5.36482051,32.1538462 1.94871795,30.4233846 1.94871795,29.2307692 L1.94871795,28.2154872 C4.01630769,29.5230769 7.42948718,30.2051282 10.7179487,30.2051282 C14.0064103,30.2051282 17.4195897,29.5230769 19.4871795,28.2154872 L19.4871795,29.2307692 C19.4871795,30.4233846 16.0710769,32.1538462 10.7179487,32.1538462 Z M10.7179487,28.2564103 C5.36482051,28.2564103 1.94871795,26.5259487 1.94871795,25.3333333 L1.94871795,24.3180513 C4.01630769,25.625641 7.42948718,26.3076923 10.7179487,26.3076923 C14.0064103,26.3076923 17.4195897,25.625641 19.4871795,24.3180513 L19.4871795,25.3333333 C19.4871795,26.5259487 16.0710769,28.2564103 10.7179487,28.2564103 Z M10.7179487,24.3589744 C5.36482051,24.3589744 1.94871795,22.6285128 1.94871795,21.4358974 L1.94871795,20.4206154 C4.01630769,21.7282051 7.42948718,22.4102564 10.7179487,22.4102564 C14.0064103,22.4102564 17.4195897,21.7282051 19.4871795,20.4206154 L19.4871795,21.4358974 C19.4871795,22.6285128 16.0710769,24.3589744 10.7179487,24.3589744 Z M10.7179487,20.4615385 C5.36482051,20.4615385 1.94871795,18.7310769 1.94871795,17.5384615 C1.94871795,16.3458462 5.36482051,14.6153846 10.7179487,14.6153846 C16.0710769,14.6153846 19.4871795,16.3458462 19.4871795,17.5384615 C19.4871795,18.7310769 16.0710769,20.4615385 10.7179487,20.4615385 Z M22.4102564,0 C17.214,0 11.6923077,1.70707692 11.6923077,4.87179487 L11.6923077,8.76923077 C11.6923077,11.9339487 17.214,13.6410256 22.4102564,13.6410256 C25.6987179,13.6410256 29.1118974,12.9589744 31.1794872,11.6513846 L31.1794872,12.6666667 C31.1794872,13.8592821 27.7633846,15.5897436 22.4102564,15.5897436 L22.4102564,17.5384615 C25.6987179,17.5384615 29.1118974,16.8564103 31.1794872,15.5488205 L31.1794872,16.5641026 C31.1794872,17.7567179 27.7633846,19.4871795 22.4102564,19.4871795 L22.4102564,21.4358974 C25.6987179,21.4358974 29.1118974,20.7538462 31.1794872,19.4462564 L31.1794872,20.4615385 C31.1794872,21.6541538 27.7633846,23.3846154 22.4102564,23.3846154 L22.4102564,25.3333333 C25.6987179,25.3333333 29.1118974,24.6512821 31.1794872,23.3436923 L31.1794872,24.3589744 C31.1794872,25.5515897 27.7633846,27.2820513 22.4102564,27.2820513 L22.4102564,29.2307692 C25.6987179,29.2307692 29.1118974,28.5487179 31.1794872,27.2411282 L31.1794872,28.2564103 C31.1794872,29.4490256 27.7633846,31.1794872 22.4102564,31.1794872 L22.4102564,33.1282051 C27.6065128,33.1282051 33.1282051,31.4211282 33.1282051,28.2564103 L33.1282051,4.87179487 C33.1282051,1.70707692 27.6065128,0 22.4102564,0 Z M22.4102564,1.94871795 C27.7633846,1.94871795 31.1794872,3.67917949 31.1794872,4.87179487 C31.1794872,6.06441026 27.7633846,7.79487179 22.4102564,7.79487179 C17.0571282,7.79487179 13.6410256,6.06441026 13.6410256,4.87179487 C13.6410256,3.67917949 17.0571282,1.94871795 22.4102564,1.94871795 Z M22.4102564,11.6923077 C17.0571282,11.6923077 13.6410256,9.96184615 13.6410256,8.76923077 L13.6410256,7.75394872 C15.7086154,9.06153846 19.1217949,9.74358974 22.4102564,9.74358974 C25.6987179,9.74358974 29.1118974,9.06153846 31.1794872,7.75394872 L31.1794872,8.76923077 C31.1794872,9.96184615 27.7633846,11.6923077 22.4102564,11.6923077 Z" id="Shape"></path>
                </g>
            </g>
        </g>
    </g>
</svg>