<?xml version="1.0" encoding="UTF-8"?>
<svg width="81px" height="78px" viewBox="0 0 81 78" version="1.1" xmlns="http://www.w3.org/2000/svg" xmlns:xlink="http://www.w3.org/1999/xlink">
    <title>E3254FE8-F82E-4E4C-820D-1F1862E93C26</title>
    <g id="Page-1" stroke="none" stroke-width="1" fill="none" fill-rule="evenodd">
        <g id="2.Landing-Screen---Buyer-" transform="translate(-952.000000, -160.000000)">
            <g id="Group-14" transform="translate(952.000000, 160.000000)">
                <rect id="Rectangle" stroke="#E5EDFF" stroke-width="0.4" fill="#E6EDFF" x="0.2" y="0.2" width="80.6" height="77.6" rx="8"></rect>
                <g id="noun_correct_3145948" transform="translate(22.000000, 20.000000)" fill="#1777CF" fill-rule="nonzero" stroke="#1777CF" stroke-width="0.3">
                    <g id="Group">
                        <path d="M19,38 C8.50658975,38 0,29.4934102 0,19 C0,8.50658975 8.50658975,0 19,0 C29.4934102,0 38,8.50658975 38,19 C38,24.0391133 35.99822,28.8718377 32.4350288,32.4350288 C28.8718377,35.99822 24.0391133,38 19,38 Z M19,3.16666667 C10.2554915,3.16666667 3.16666667,10.2554915 3.16666667,19 C3.16666667,27.7445085 10.2554915,34.8333333 19,34.8333333 C27.7445085,34.8333333 34.8333333,27.7445085 34.8333333,19 C34.8333333,14.8007389 33.1651834,10.7734686 30.1958574,7.80414263 C27.2265314,4.83481664 23.1992611,3.16666667 19,3.16666667 Z" id="Shape"></path>
                        <path d="M15.8333333,26.9166932 C15.4124786,26.9190999 15.0079715,26.7538786 14.7091667,26.4575 L8.37583333,20.1241667 C7.83785341,19.4959629 7.87402391,18.5595259 8.45885823,17.9746916 C9.04369256,17.3898572 9.98012956,17.3536867 10.6083333,17.8916667 L15.8333333,23.1008333 L27.3758333,11.5583333 C28.0040371,11.0203534 28.9404741,11.0565239 29.5253084,11.6413582 C30.1101428,12.2261926 30.1463133,13.1626296 29.6083333,13.7908333 L16.9416667,26.4575 C16.646754,26.7500116 16.2487048,26.9149177 15.8333333,26.9166932 Z" id="Path"></path>
                    </g>
                </g>
            </g>
        </g>
    </g>
</svg>