<?xml version="1.0" encoding="UTF-8"?>
<svg width="81px" height="78px" viewBox="0 0 81 78" version="1.1" xmlns="http://www.w3.org/2000/svg" xmlns:xlink="http://www.w3.org/1999/xlink">
    <title>C6B95B67-DDDA-4151-B6CA-618C72EFA0B1</title>
    <g id="Page-1" stroke="none" stroke-width="1" fill="none" fill-rule="evenodd">
        <g id="2.Landing-Screen---Buyer-" transform="translate(-599.000000, -160.000000)">
            <g id="Group-20" transform="translate(599.000000, 160.000000)">
                <g id="Group-14" fill="#D5FBF8" stroke="#D5FBF8" stroke-width="0.4">
                    <rect id="Rectangle" x="0.2" y="0.2" width="80.6" height="77.6" rx="8"></rect>
                </g>
                <g id="noun_send_1683912" transform="translate(22.000000, 20.000000)" fill="#27ACAA" fill-rule="nonzero" stroke="#27ACAA">
                    <path d="M37.4365711,0.429378531 C37.0076869,-6.80459273e-17 36.2571394,-0.107344633 35.7210341,0.107344633 L0.981409796,13.3107345 C0.33808342,13.6327684 -0.0908008309,14.2768362 0.0164202318,14.920904 C0.0164202318,15.5649718 0.445304483,16.1016949 1.08863086,16.3163842 L16.3140218,21.5762712 L21.782296,36.9265537 C21.9967381,37.5706215 22.6400645,38 23.2833908,38 C23.2833908,38 23.2833908,38 23.2833908,38 C24.0339383,38 24.6772647,37.4632768 24.8917068,36.819209 L37.9726764,2.14689266 C38.0798975,1.50282486 37.8654554,0.858757062 37.4365711,0.429378531 Z M23.2833908,34.8870056 L18.1367798,20.6101695 C17.9223377,20.180791 17.6006745,19.7514124 17.1717903,19.6440678 L3.01860999,14.8135593 L35.3993709,2.57627119 L23.2833908,34.8870056 Z M20.9245275,17.0677966 C20.4956432,16.6384181 20.4956432,15.9943503 20.9245275,15.5649718 L26.1783595,10.3050847 C26.6072438,9.87570621 27.2505702,9.87570621 27.6794544,10.3050847 C28.1083387,10.7344633 28.1083387,11.3785311 27.6794544,11.8079096 L22.4256223,17.0677966 C22.2111802,17.2824859 21.889517,17.3898305 21.6750749,17.3898305 C21.4606328,17.3898305 21.1389696,17.1751412 20.9245275,17.0677966 Z" id="Shape"></path>
                </g>
            </g>
        </g>
    </g>
</svg>