<?xml version="1.0" encoding="UTF-8"?>
<svg width="81px" height="78px" viewBox="0 0 81 78" version="1.1" xmlns="http://www.w3.org/2000/svg" xmlns:xlink="http://www.w3.org/1999/xlink">
    <title>E9BDBD51-2192-4DB7-A623-3025970BF59F</title>
    <g id="Page-1" stroke="none" stroke-width="1" fill="none" fill-rule="evenodd">
        <g id="2.Landing-Screen---Buyer-" transform="translate(-246.000000, -160.000000)">
            <g id="Group-19" transform="translate(246.000000, 160.000000)">
                <g id="Group-13">
                    <rect id="Rectangle" stroke="#FFF5D6" stroke-width="0.4" fill="#FFF5D6" x="0.2" y="0.2" width="80.6" height="77.6" rx="8"></rect>
                    <g id="Group-7" transform="translate(20.000000, 19.000000)" fill="#FF6D00" fill-rule="nonzero">
                        <g id="noun_pending_2186717" transform="translate(0.976190, 0.976190)">
                            <g id="Group">
                                <path d="M19.5238095,-8.67031314e-16 C8.74110727,-8.67031314e-16 3.46812526e-15,8.74110727 3.46812526e-15,19.5238095 C3.46812526e-15,30.3065118 8.74110727,39.047619 19.5238095,39.047619 C30.3065118,39.047619 39.047619,30.3065118 39.047619,19.5238095 C39.047619,14.3457733 36.9906522,9.37981595 33.3292276,5.71839141 C29.6678031,2.05696688 24.7018458,-8.67031314e-16 19.5238095,-8.67031314e-16 Z M19.5238095,35.1428571 C10.8976477,35.1428571 3.9047619,28.1499713 3.9047619,19.5238095 C3.9047619,10.8976477 10.8976477,3.9047619 19.5238095,3.9047619 C28.1499713,3.9047619 35.1428571,10.8976477 35.1428571,19.5238095 C35.1428571,23.6662385 33.4972836,27.6390044 30.568144,30.568144 C27.6390044,33.4972836 23.6662385,35.1428571 19.5238095,35.1428571 Z" id="Shape"></path>
                                <path d="M19.5238095,7.80952381 C18.4455393,7.80952381 17.5714286,8.68363454 17.5714286,9.76190476 L17.5714286,18.7233333 L12.2804762,23.9947619 C11.7233132,24.4719041 11.480621,25.2210883 11.6521802,25.9342942 C11.8237395,26.6475001 12.3805952,27.2043558 13.0938011,27.375915 C13.8070069,27.5474743 14.5561912,27.304782 15.0333333,26.747619 L20.8904762,20.8904762 C21.2583326,20.5300072 21.4688553,20.0387876 21.4761905,19.5238095 L21.4761905,9.76190476 C21.4761905,8.68363454 20.6020797,7.80952381 19.5238095,7.80952381 Z" id="Path"></path>
                            </g>
                        </g>
                    </g>
                </g>
            </g>
        </g>
    </g>
</svg>